<?xml version="1.0" encoding="utf-8"?>
<!-- Generator: Adobe Illustrator 19.1.1, SVG Export Plug-In . SVG Version: 6.00 Build 0)  -->
<svg version="1.1" id="Calque_1" xmlns="http://www.w3.org/2000/svg" xmlns:xlink="http://www.w3.org/1999/xlink" x="0px" y="0px"
	 viewBox="-424.4 139.6 119.7 87.3" style="enable-background:new -424.4 139.6 119.7 87.3;" xml:space="preserve">
<style type="text/css">
	.st0{fill:#FFFFFF;}
</style>
<g>
	<g>
		<path d="M-342.7,225.4c-2.1,0-3.8-0.1-5.5-0.4c-0.5-0.1-1-0.1-1.6-0.2l-0.8-0.1c-3-0.5-5.6-1.3-8.1-1.9c-2.7-0.9-5-1.7-7.2-2.5
			c-2.4-1-4.6-1.8-6.7-2.6c-4.8-1.7-9.4-2.8-13.7-3.1c-3.5,0.6-6.3,1-8,1c-1.5,0-3-0.2-4.1-0.6l-0.1,0l-0.1,0
			c-0.9-0.4-1.8-0.9-2.8-1.6c-2.1-1.6-3.1-3.3-3.1-5c0-1.5,0.5-2.9,1.4-4.1c0.6-0.8,1.4-1.5,2.3-2.1c-0.3-0.9-0.5-1.9-0.6-3.2
			c-0.2-2.2-0.3-4.4-0.2-6.6l0-0.3c0.1-2.2,0.2-4.5,0.4-6.9c0.2-2.4,0.4-4.8,0.6-7.3l0-0.4c0.2-2.5,0.3-5,0.4-7.4l0-0.3
			c0.1-2.8,0.1-5.1-0.1-7.1c-0.2-2.7-0.6-4.5-1-6.1c-0.5-1.9-1.2-3.4-2.1-4.6c-0.9-1.2-2-2.1-3-2.6c-1.3-0.6-2-0.7-2.3-0.7
			c0,0-0.2,0-0.2,0l-0.1,0c-1.9,0.1-3.1,1.1-4,3.1c-0.9,1.9-1,4-0.3,6.7c0.3,1.3,0.7,2.4,1.4,3.6c0.7,1.3,1.4,2.4,2.3,3.3
			c0.8,1,1.7,1.8,2.5,2.4c0.8,0.5,1.5,1,2.2,1.3c0.6,0.3,1.2,0.5,1.8,0.7l1.2,0.4l-0.2,1.3c-0.1,0.6-0.2,1.4-0.6,2.2
			c-1.1,2.6-3,4.3-5.7,5.1c-0.5,0.1-0.9,0.1-1.3,0.1c-0.9,0-1.9-0.2-2.8-0.6c-1.3-0.6-2.5-1.5-3.7-2.7c-2.3-2.2-4-5.2-5.4-9.2
			c-2-6.3-1.9-11.9,0.3-17.2c1.4-3.3,3.7-5.7,6.6-7c1.4-0.6,3-1,4.7-1c2,0,4.2,0.5,6.4,1.5c5.1,2.2,8.8,6.4,11,12.4
			c1.1,2.8,1.9,5.7,2.4,8.7c0.5,3,0.9,6.2,1.2,9.4c0.3,3.2,0.6,6.4,0.8,9.7c0.1,0.9,0.2,1.9,0.2,2.9c0.2,2.3,0.4,4.4,0.6,6.5
			c0.4,2.9,0.8,5.2,1.3,7.1c0.3,0,0.6,0,0.9,0.1l15.5,3.4c-0.1-0.7-0.1-1.5-0.1-2.2c0-3.2,0.4-6.2,1.3-8.9c0.8-2.8,2-5.5,3.4-8
			c1.4-2.6,3.2-5.1,5.3-7.5c2.1-2.5,4.3-4.6,6.7-6.6c2.4-2,5-3.9,7.7-5.5c2.8-1.7,5.6-3.2,8.3-4.2c5.8-2.5,11.6-3.8,17-3.8
			c5.8,0,9.9,1.7,12.1,5.2c0.8,1.1,1.2,2.6,1.2,4.3c0,1.5-0.3,2.9-0.7,4l0,0.1l0,0.1c-0.4,0.8-1,1.8-1.8,2.6
			c-1.7,1.8-3.2,2.6-4.8,2.6c-1.4,0-3.4-0.9-5.8-2.8c-0.6-0.5-0.9-0.8-1.1-1l-1-1l0.9-1.1c1.2-1.5,1.9-2.8,1.9-3.9
			c0-0.7-0.2-1-0.5-1.1c-0.3-0.2-1.1-0.6-3-0.6c-1.7,0-3.7,0.4-5.9,1.2c-2.4,0.9-4.7,2-6.9,3.4c-1.8,1.2-4.1,3-6.2,5.2
			c-1.9,1.9-3.5,3.9-5,6.4c-3,4.9-4.5,9.6-4.5,14.1c0,4.5,1.5,8.1,4.6,11c1.4,1.2,2.7,2.1,3.9,2.7c0.3,0,1.6,0.2,2,0.3
			c1.8,0.2,3.4,0.3,4.7,0.3c1.3,0,2.7-0.1,3.9-0.3c1.3-0.2,2.4-0.5,3.4-0.8c2.2-0.8,3.7-1.8,4.6-3l0.5-0.7l0.8,0
			c3.4,0.1,4.6,1.4,5.1,2.5c0.7-0.4,1.4-0.9,2-1.4c1.9-1.5,3.5-3.3,4.9-5.4l0.4-0.7h0.8c2.1,0,3.4,1.2,3.4,3.1
			c0,0.7-0.2,1.6-0.6,2.3c-2.2,5.3-5.8,9.8-10.9,13.6c-5.4,3.9-11.1,6.4-17.5,7.6c-1.7,0.4-3.6,0.6-5.5,0.6H-342.7z"/>
		<path class="st0" d="M-409.9,142.6c1.8,0,3.8,0.5,5.8,1.4c4.6,2,8.1,5.8,10.2,11.5c1,2.6,1.8,5.4,2.3,8.4s0.9,6.1,1.2,9.3
			c0.3,3.2,0.6,6.4,0.8,9.7c0.3,3.3,0.5,6.5,0.9,9.5c0.4,3.2,0.9,6,1.6,8.4c0.7,0,1.3,0,1.8,0.1l15.6,3.4c0.7,0.1,1.3,0.3,1.9,0.4
			c-0.2-1.3-0.3-2.7-0.3-4.1c0-3,0.4-5.9,1.2-8.5c0.8-2.6,1.9-5.2,3.3-7.7s3.1-4.9,5.1-7.2c2-2.3,4.1-4.4,6.5-6.4s4.9-3.8,7.5-5.4
			c2.6-1.6,5.3-3,8.1-4.1c5.8-2.5,11.3-3.7,16.5-3.7c5.3,0,8.9,1.5,10.8,4.5c0.7,1,1,2.2,1,3.5s-0.2,2.5-0.6,3.4
			c-0.5,0.9-1,1.7-1.6,2.4c-1.3,1.4-2.5,2.1-3.7,2.1c-1,0-2.7-0.8-4.9-2.5c-0.5-0.4-0.8-0.7-1-0.9c1.5-1.8,2.2-3.4,2.2-4.9
			c0-1.1-0.4-1.9-1.2-2.4c-0.8-0.5-2.1-0.8-3.8-0.8c-1.8,0-3.9,0.4-6.4,1.3s-4.9,2.1-7.2,3.6c-2.3,1.6-4.5,3.3-6.5,5.4
			c-2,2-3.7,4.2-5.2,6.6c-3.1,5.1-4.7,10.1-4.7,14.9c0,4.9,1.7,8.9,5.1,12.1c1.4,1.2,2.9,2.3,4.5,3.1c0.7,0.1,1.5,0.2,2.2,0.3
			c1.9,0.2,3.5,0.3,4.9,0.3s2.8-0.1,4.1-0.3c1.4-0.2,2.6-0.5,3.7-0.9c2.6-0.9,4.3-2.1,5.3-3.6c2.6,0.1,3.9,0.9,3.9,2.2
			c0,0.4,0,0.9-0.1,1.3c1.5-0.8,2.9-1.7,4.3-2.8c2-1.6,3.7-3.5,5.2-5.8c1.3,0,1.9,0.5,1.9,1.6c0,0.4-0.1,1-0.4,1.6
			c-2.2,5.2-5.7,9.5-10.5,13.1c-5.2,3.8-10.8,6.2-16.9,7.3c-1.7,0.4-3.5,0.6-5.2,0.6c-0.3,0-0.7,0-1,0c-0.4,0-0.7,0-1,0
			c-1.8,0-3.5-0.1-5.2-0.4c-0.9-0.1-1.6-0.2-2.4-0.3c-2.8-0.5-5.4-1.2-7.9-1.9c-2.5-0.8-4.8-1.6-7.1-2.5c-2.2-0.9-4.5-1.8-6.7-2.6
			c-5.3-1.9-10.1-2.9-14.3-3.2c-3.8,0.7-6.4,1-7.9,1c-1.4,0-2.7-0.2-3.6-0.5c-0.9-0.4-1.7-0.8-2.5-1.4c-1.7-1.3-2.5-2.6-2.5-3.8
			s0.4-2.3,1.1-3.2c0.7-0.9,1.7-1.7,2.8-2.2c0.1,0,0.1-0.1,0.2-0.1c-0.5-1.1-0.8-2.5-1-4.1c-0.2-1.9-0.3-4-0.2-6.3s0.2-4.7,0.4-7.2
			s0.4-5.1,0.6-7.7c0.2-2.6,0.3-5.2,0.4-7.7c0.1-2.6,0.1-5-0.1-7.3c-0.2-2.3-0.5-4.5-1.1-6.4c-0.5-2-1.3-3.7-2.4-5.1
			c-1.1-1.4-2.3-2.4-3.6-3c-1.1-0.5-2.1-0.8-2.9-0.8c-0.1,0-0.2,0-0.3,0c-2.4,0.1-4.2,1.4-5.3,4c-1,2.2-1.1,4.7-0.4,7.6
			c0.3,1.4,0.8,2.7,1.5,4c0.7,1.3,1.5,2.5,2.5,3.6c0.9,1.1,1.9,2,2.8,2.6c0.9,0.6,1.7,1.1,2.4,1.4c0.7,0.3,1.3,0.5,1.9,0.7
			c-0.1,0.6-0.2,1.2-0.5,1.9c-0.9,2.2-2.5,3.6-4.7,4.2c-0.3,0.1-0.6,0.1-0.9,0.1c-0.7,0-1.4-0.2-2.2-0.5c-1.1-0.5-2.2-1.3-3.3-2.4
			c-2.2-2.1-3.8-5-5-8.6c-1.9-5.9-1.8-11.2,0.3-16.1c1.3-3,3.3-5.1,5.8-6.2C-412.7,142.9-411.4,142.6-409.9,142.6 M-409.9,139.6
			L-409.9,139.6c-1.9,0-3.6,0.4-5.3,1.1c-3.2,1.4-5.7,4.1-7.3,7.7c-2.4,5.5-2.5,11.7-0.4,18.2c1.4,4.3,3.3,7.5,5.8,9.8
			c1.3,1.3,2.7,2.3,4.2,3c1.1,0.5,2.3,0.8,3.4,0.8c0.5,0,1.1-0.1,1.6-0.2l0.1,0l0.1,0c2.7-0.7,4.8-2.4,6.2-4.8c0,0.7-0.1,1.3-0.1,2
			c-0.2,2.6-0.4,5.2-0.6,7.7c-0.2,2.4-0.3,4.8-0.4,7l0,0.3c-0.1,2.2,0,4.5,0.2,6.7l0,0l0,0c0.1,0.9,0.2,1.7,0.4,2.4
			c-0.7,0.5-1.3,1.1-1.8,1.8c-1.1,1.5-1.7,3.2-1.7,5c0,1.5,0.6,3.9,3.7,6.2c1.1,0.8,2.1,1.3,3.1,1.8l0.1,0.1l0.1,0
			c1.3,0.4,2.9,0.7,4.5,0.7c1.8,0,4.5-0.3,8.1-1c4.1,0.3,8.5,1.3,13.1,3c2,0.7,4.2,1.6,6.6,2.6c2.3,0.9,4.6,1.7,7.3,2.6l0.1,0l0.1,0
			c2.5,0.7,5.2,1.4,8.2,2l0.1,0l0.1,0l0.8,0.1c0.5,0.1,1,0.1,1.6,0.2c1.7,0.3,3.5,0.4,5.6,0.4h1h1c1.9,0,3.9-0.2,5.8-0.7
			c6.6-1.2,12.5-3.8,18.1-7.8c5.3-4,9.1-8.7,11.5-14.3c0.6-1.2,0.7-2.3,0.7-2.8c0-2.3-1.5-4.6-4.9-4.6h-1.6l-0.9,1.4
			c-1.3,2-2.8,3.7-4.6,5.1c-0.2,0.2-0.5,0.4-0.7,0.5c-1-1-2.6-1.8-5.4-1.9l-1.7-0.1l-0.9,1.4c-0.6,1-1.9,1.8-3.8,2.4
			c-1,0.4-2,0.6-3.1,0.8c-1.2,0.2-2.4,0.3-3.7,0.3c-1.3,0-2.7-0.1-4.5-0.3c-0.3,0-0.7-0.1-1.1-0.1c-0.2,0-0.4-0.1-0.6-0.1
			c-1.1-0.6-2.2-1.4-3.4-2.4c-2.8-2.6-4.1-5.9-4.1-9.9c0-4.2,1.4-8.7,4.3-13.3c1.4-2.3,3-4.3,4.8-6l0,0l0,0c2-2.1,4.3-3.8,6-5
			c2.1-1.4,4.3-2.5,6.5-3.3c2.1-0.7,3.9-1.1,5.4-1.1c1.1,0,1.7,0.2,2,0.3c0,1-0.8,2.1-1.5,2.9l-1.8,2.1l1.9,1.9
			c0.2,0.2,0.6,0.6,1.2,1.1l0,0l0,0c2.7,2.1,4.9,3.1,6.7,3.1c2.1,0,4-1,5.9-3.1l0,0l0,0c0.8-1,1.5-2.1,1.9-2.9l0.1-0.1l0.1-0.1
			c0.6-1.3,0.9-2.9,0.9-4.6c0-2-0.5-3.7-1.5-5.2c-2.5-3.9-7-5.8-13.3-5.8c-5.6,0-11.6,1.3-17.6,3.9c-2.8,1.1-5.7,2.6-8.5,4.3
			c-2.7,1.7-5.3,3.6-7.8,5.7c-2.4,2-4.6,4.2-6.8,6.7c-2.1,2.4-4,5-5.5,7.7c-1.5,2.6-2.7,5.4-3.5,8.3c-0.9,2.9-1.3,6-1.3,9.4
			c0,0.1,0,0.2,0,0.3l-13.6-3l0,0l0,0c0,0,0,0,0,0c-0.4-1.7-0.7-3.6-1-5.9c-0.3-2.1-0.5-4.2-0.6-6.5c-0.1-1-0.2-1.9-0.2-2.9
			c-0.2-3.3-0.5-6.6-0.8-9.8c-0.3-3.3-0.7-6.5-1.2-9.5c-0.5-3-1.3-6.1-2.5-9c-2.3-6.3-6.3-10.8-11.8-13.2
			C-405.4,140.2-407.7,139.6-409.9,139.6L-409.9,139.6z M-401.5,168.6l-1.1-0.4c-0.6-0.2-1.1-0.4-1.7-0.6c-0.5-0.2-1.3-0.7-1.9-1.1
			c-0.7-0.5-1.5-1.2-2.1-2l0-0.1l-0.1-0.1c-0.8-0.8-1.4-1.8-2.1-3c-0.6-1.1-1-2.1-1.2-3.2l0,0l0,0c-0.5-2.3-0.5-4.1,0.2-5.7l0,0l0,0
			c0.8-1.8,1.7-2.1,2.7-2.2l0.1,0l0.1,0c0.1,0,0.6,0.1,1.6,0.5c0.9,0.4,1.7,1.1,2.5,2.1c0.8,1.1,1.5,2.4,1.8,4l0,0.1l0,0.1
			c0.4,1.4,0.7,3.2,1,5.8C-401.4,164.4-401.4,166.3-401.5,168.6L-401.5,168.6z"/>
	</g>
	<g>
		<path d="M-372.8,194.1c-0.5,0-1-0.1-1.6-0.2c-0.6-0.1-2.3-0.7-4.6-1.4c-1.3-0.4-2.4-0.7-2.8-0.9c-1.3-0.4-2.4-0.5-3.8-0.5h-1.5
			v-1.2c0,0,0-0.1,0-0.1c-0.3-1.1,0.3-2.2,1.5-2.6l0.1,0l0.1,0c0.3-0.1,0.7-0.1,1.1-0.1c0.6,0,1.4,0.1,2.5,0.2l0.1,0
			c0.3,0.1,0.6,0.1,0.9,0.2c0.4,0.1,0.7,0.1,1.1,0.2l0.3,0.1c0.6,0.1,1,0.2,1.5,0.3c0.7,0.1,1.3,0.2,1.8,0.2c0.5,0,0.9-0.1,1.1-0.1
			c0.1,0,0.1,0,0.2,0l0.1-0.3c0.2-1,0.8-1.3,1.2-1.5c0.2-0.1,0.5-0.1,0.7-0.1c0.2,0,0.4,0,0.6,0.1c0.3,0,0.5,0.1,0.6,0.2l0.1,0
			l0.2,0.1l0.2,0.1c0.1,0.1,0.2,0.1,0.3,0.2c0.1,0,0.1,0.1,0.2,0.1c0.5,0.3,0.8,0.5,1,0.8c0.6,0.6,0.9,1.1,1.2,1.8
			c0.2,0.7,0.3,1.3,0.1,1.9c-0.2,1.2-1.2,2.2-2.7,2.5c-0.3,0.1-0.6,0.2-1.1,0.2C-372.4,194.1-372.7,194.1-372.8,194.1z"/>
		<path class="st0" d="M-373,187.5c0.1,0,0.2,0,0.3,0.1c0.1,0,0.4,0.1,0.6,0.2c0.2,0.1,0.4,0.3,0.6,0.4c0.3,0.1,0.4,0.3,0.6,0.5
			c0.4,0.4,0.6,0.8,0.8,1.2c0.1,0.4,0.1,0.8,0.1,1.1c-0.1,0.7-0.7,1.2-1.6,1.4c-0.2,0.1-0.4,0.1-0.7,0.1c-0.1,0-0.3,0-0.4,0
			c-0.3,0-0.7,0-1.3-0.2c-1-0.2-6.3-1.9-7.4-2.2c-1.5-0.4-2.9-0.6-4.2-0.6c0-0.1-0.1-0.1-0.1-0.2c-0.1-0.4,0.1-0.7,0.5-0.9
			c0.2-0.1,0.5-0.1,0.8-0.1c0.6,0,1.3,0.1,2.3,0.2c0.6,0.1,1.3,0.2,1.9,0.4c0.7,0.1,1.4,0.3,2,0.4c0.8,0.1,1.4,0.2,2,0.2
			s1.1-0.1,1.5-0.2c0.6-0.1,0.9-0.4,1.2-0.6c0.3-0.3,0.3-0.6,0.1-0.8c0.1-0.3,0.1-0.4,0.3-0.4C-373.1,187.5-373.1,187.5-373,187.5
			 M-373,184.5c-0.5,0-1,0.1-1.4,0.3c-0.6,0.3-1.3,0.8-1.7,1.8c0,0,0,0-0.1,0c-0.4,0-1,0-1.6-0.1l0,0l0,0c-0.4,0-0.9-0.1-1.4-0.2
			l-0.3-0.1c-0.4-0.1-0.7-0.1-1.1-0.2c-0.3,0-0.5-0.1-0.8-0.1l-0.1,0l-0.1,0c-1.2-0.2-2-0.3-2.7-0.3c-0.6,0-1,0-1.5,0.1l-0.2,0
			l-0.1,0c-0.9,0.3-1.6,0.8-2.1,1.6c-0.5,0.8-0.7,1.8-0.4,2.8v2.5h3c1.2,0,2.2,0.1,3.3,0.5l0,0l0,0c0.4,0.1,1.6,0.5,2.8,0.8
			c2.5,0.8,4.1,1.3,4.8,1.4c0.7,0.2,1.3,0.2,1.9,0.2c0.2,0,0.3,0,0.4,0l0.1,0c0,0,0,0,0,0c0.7,0,1.2-0.2,1.5-0.3
			c2-0.5,3.4-1.9,3.7-3.7c0.2-0.9,0.1-1.8-0.2-2.7c-0.3-0.9-0.8-1.7-1.5-2.4c-0.3-0.3-0.7-0.7-1.4-1l0,0c-0.1-0.1-0.2-0.2-0.3-0.2
			l-0.3-0.2l-0.3-0.1l0,0c-0.2-0.1-0.5-0.2-0.9-0.3C-372.4,184.5-372.7,184.5-373,184.5L-373,184.5z"/>
	</g>
</g>
</svg>
